<svg width="134" height="34" viewBox="0 0 134 34" fill="" xmlns="http://www.w3.org/2000/svg">
<path d="M15.45 6.65039V2.40039H2.05005V31.6004H15.45V27.3504C12.705 27.3504 10.0724 26.2599 8.13149 24.3189C6.19049 22.3779 5.10005 19.7454 5.10005 17.0004C5.10005 14.2554 6.19049 11.6228 8.13149 9.68184C10.0724 7.74084 12.705 6.65039 15.45 6.65039Z"/>
<path d="M15.45 6.65039V27.3504C18.195 27.3504 20.8276 26.2599 22.7686 24.3189C24.7096 22.3779 25.8 19.7454 25.8 17.0004C25.8 14.2554 24.7096 11.6228 22.7686 9.68184C20.8276 7.74084 18.195 6.65039 15.45 6.65039Z"/>
<path d="M33.3201 9.25H36.3201V23.7H33.3201V9.25Z"/>
<path d="M38 18.7499C38 17.7103 38.3087 16.6941 38.8869 15.8301C39.4651 14.9661 40.2868 14.2932 41.2479 13.8967C42.209 13.5003 43.2661 13.3981 44.2853 13.6031C45.3045 13.8081 46.2399 14.3111 46.9729 15.0483C47.7059 15.7856 48.2036 16.7238 48.4028 17.7442C48.6019 18.7646 48.4937 19.8211 48.0917 20.7799C47.6897 21.7386 47.0122 22.5565 46.1449 23.1297C45.2776 23.703 44.2596 24.0058 43.22 23.9999C42.5305 24.0053 41.8468 23.873 41.2091 23.6106C40.5714 23.3483 39.9924 22.9613 39.5062 22.4724C39.02 21.9834 38.6364 21.4022 38.3777 20.763C38.1191 20.1238 37.9907 19.4394 38 18.7499ZM45.52 18.7499C45.5082 18.3017 45.3645 17.8669 45.1069 17.5C44.8493 17.133 44.4893 16.8501 44.0717 16.6867C43.6542 16.5233 43.1978 16.4866 42.7596 16.5813C42.3213 16.6759 41.9207 16.8976 41.6078 17.2188C41.2949 17.5399 41.0836 17.9461 41.0004 18.3867C40.9172 18.8273 40.9657 19.2826 41.1399 19.6957C41.3141 20.1088 41.6062 20.4615 41.9798 20.7094C42.3533 20.9574 42.7916 21.0897 43.24 21.0899C43.5453 21.0959 43.8485 21.0388 44.1307 20.9222C44.4129 20.8057 44.668 20.6322 44.8801 20.4126C45.0922 20.193 45.2567 19.9319 45.3634 19.6459C45.4701 19.3598 45.5166 19.0548 45.5 18.7499H45.52Z"/>
<path d="M60.31 13.8001V23.2101C60.31 26.5301 57.71 27.9401 55.08 27.9401C54.1523 28.0162 53.2218 27.8319 52.3933 27.4079C51.5647 26.9839 50.8709 26.337 50.39 25.5401L52.92 24.0801C53.125 24.4935 53.4511 24.8345 53.8549 25.0578C54.2587 25.2811 54.7209 25.3761 55.18 25.3301C55.4725 25.3661 55.7693 25.3371 56.0492 25.2451C56.3292 25.153 56.5853 25.0003 56.7993 24.7977C57.0134 24.5951 57.18 24.3478 57.2873 24.0733C57.3946 23.7989 57.4399 23.5041 57.42 23.2101V22.3001C57.0709 22.7234 56.6279 23.0594 56.1263 23.2816C55.6246 23.5038 55.0781 23.606 54.53 23.5801C53.2039 23.5801 51.9322 23.0533 50.9945 22.1156C50.0568 21.178 49.53 19.9062 49.53 18.5801C49.53 17.254 50.0568 15.9823 50.9945 15.0446C51.9322 14.1069 53.2039 13.5801 54.53 13.5801C55.0781 13.5542 55.6246 13.6564 56.1263 13.8786C56.6279 14.1008 57.0709 14.4368 57.42 14.8601V13.8601L60.31 13.8001ZM57.42 18.5501C57.4399 18.0717 57.3163 17.5982 57.065 17.1906C56.8137 16.783 56.4463 16.4599 56.0098 16.2628C55.5734 16.0657 55.0881 16.0037 54.6161 16.0847C54.1442 16.1657 53.7072 16.386 53.3615 16.7173C53.0158 17.0486 52.7771 17.4758 52.6761 17.9439C52.5751 18.412 52.6164 18.8995 52.7947 19.3439C52.9731 19.7883 53.2803 20.1692 53.6768 20.4376C54.0734 20.706 54.5412 20.8497 55.02 20.8501C55.3325 20.8726 55.6462 20.8293 55.9408 20.7231C56.2355 20.6168 56.5047 20.4499 56.7308 20.2331C56.957 20.0164 57.1352 19.7546 57.2539 19.4647C57.3726 19.1748 57.4292 18.8632 57.42 18.5501Z"/>
<path d="M62.0001 18.75C62.0001 17.7112 62.3083 16.6958 62.8856 15.8322C63.4629 14.9686 64.2834 14.2957 65.2433 13.8987C66.2032 13.5016 67.2593 13.3982 68.278 13.6016C69.2967 13.805 70.2321 14.306 70.966 15.0412C71.6998 15.7765 72.199 16.7129 72.4004 17.7319C72.6019 18.751 72.4965 19.8069 72.0976 20.766C71.6987 21.7252 71.0242 22.5444 70.1596 23.1201C69.2949 23.6958 68.2789 24.002 67.2401 24C66.5493 24.0067 65.864 23.8754 65.2246 23.6138C64.5852 23.3522 64.0044 22.9656 63.5164 22.4766C63.0283 21.9876 62.6428 21.4061 62.3824 20.7662C62.1221 20.1263 61.9921 19.4408 62.0001 18.75ZM69.5201 18.75C69.5083 18.3014 69.3643 17.8662 69.1063 17.499C68.8483 17.1319 68.4876 16.849 68.0695 16.6859C67.6514 16.5228 67.1945 16.4867 66.756 16.5822C66.3175 16.6776 65.9169 16.9004 65.6044 17.2225C65.2919 17.5446 65.0814 17.9518 64.9994 18.393C64.9173 18.8342 64.9672 19.2898 65.1429 19.7027C65.3186 20.1157 65.6123 20.4676 65.9872 20.7144C66.362 20.9611 66.8013 21.0918 67.2501 21.09C67.5554 21.096 67.8586 21.0389 68.1408 20.9223C68.423 20.8058 68.6781 20.6323 68.8902 20.4127C69.1023 20.1931 69.2668 19.932 69.3735 19.646C69.4802 19.3599 69.5267 19.0549 69.5101 18.75H69.5201Z"/>
<path d="M73.8701 11.1501C73.8701 10.7981 73.9745 10.4539 74.1701 10.1612C74.3657 9.86848 74.6437 9.64034 74.9689 9.50561C75.2942 9.37089 75.6521 9.33564 75.9974 9.40432C76.3426 9.473 76.6598 9.64253 76.9088 9.89147C77.1577 10.1404 77.3272 10.4576 77.3959 10.8028C77.4646 11.1481 77.4293 11.506 77.2946 11.8313C77.1599 12.1565 76.9317 12.4345 76.639 12.6301C76.3463 12.8257 76.0022 12.9301 75.6501 12.9301C75.1796 12.9249 74.7299 12.7357 74.3972 12.403C74.0645 12.0703 73.8753 11.6206 73.8701 11.1501ZM74.1601 13.8001H77.1601V23.7001H74.1601V13.8001Z"/>
<path d="M90 18.7496C90.0336 19.408 89.9367 20.0666 89.7148 20.6874C89.493 21.3082 89.1505 21.879 88.7072 22.3669C88.2638 22.8549 87.7284 23.2503 87.1316 23.5305C86.5349 23.8107 85.8886 23.9701 85.23 23.9996C84.6711 24.0368 84.111 23.9473 83.5916 23.7378C83.0721 23.5282 82.6067 23.2041 82.23 22.7896V27.6796H79.23V13.7996H82.23V14.7296C82.6072 14.3163 83.073 13.9937 83.5925 13.7859C84.112 13.578 84.6718 13.4904 85.23 13.5296C85.886 13.5591 86.5297 13.7176 87.1244 13.9959C87.7191 14.2742 88.2532 14.667 88.6961 15.1517C89.1391 15.6364 89.4822 16.2036 89.7059 16.821C89.9296 17.4383 90.0296 18.0936 90 18.7496ZM87 18.7496C86.9882 18.2851 86.8395 17.8345 86.5727 17.4542C86.3059 17.0739 85.9327 16.7807 85.5 16.6116C85.0673 16.4424 84.5943 16.4048 84.1402 16.5033C83.6862 16.6018 83.2714 16.8322 82.9477 17.1655C82.624 17.4988 82.4059 17.9202 82.3208 18.377C82.2356 18.8337 82.2871 19.3054 82.4689 19.733C82.6507 20.1605 82.9546 20.5249 83.3426 20.7805C83.7306 21.0361 84.1854 21.1714 84.65 21.1696C84.9682 21.1831 85.2857 21.1292 85.5816 21.0114C85.8776 20.8936 86.1453 20.7146 86.3672 20.4861C86.5891 20.2576 86.7601 19.9847 86.8692 19.6855C86.9783 19.3862 87.0228 19.0673 87 18.7496Z"/>
<path d="M99.13 20.7297C99.13 23.0097 97.13 23.9797 95.01 23.9797C94.1453 24.0575 93.2772 23.8742 92.5178 23.4535C91.7584 23.0328 91.1426 22.394 90.75 21.6197L93.33 20.1597C93.4322 20.5165 93.6538 20.8274 93.9578 21.0404C94.2618 21.2534 94.6297 21.3555 95 21.3297C95.71 21.3297 96.07 21.1097 96.07 20.7097C96.07 19.6197 91.2 20.1997 91.2 16.7697C91.2 14.6097 93.02 13.5297 95.08 13.5297C95.863 13.4946 96.641 13.6723 97.3311 14.0438C98.0213 14.4153 98.598 14.9668 99 15.6397L96.42 16.9997C96.306 16.7417 96.1198 16.5223 95.8838 16.3679C95.6477 16.2135 95.372 16.1308 95.09 16.1297C94.57 16.1297 94.26 16.3297 94.26 16.6797C94.26 17.8197 99.13 17.0697 99.13 20.7297Z"/>
<path d="M110 13.7998V23.6998H107V22.7698C106.659 23.1815 106.226 23.5072 105.737 23.7209C105.247 23.9346 104.714 24.0301 104.18 23.9998C102.18 23.9998 100.47 22.5698 100.47 19.8998V13.7998H103.47V19.4498C103.446 19.686 103.474 19.9245 103.552 20.1489C103.63 20.3732 103.755 20.578 103.919 20.7492C104.084 20.9203 104.284 21.0537 104.505 21.1402C104.726 21.2266 104.963 21.264 105.2 21.2498C106.28 21.2498 107.04 20.6098 107.04 19.2498V13.7998H110Z"/>
<path d="M127 17.6197V23.6997H124V17.8797C124 16.8797 123.53 16.2597 122.58 16.2597C121.63 16.2597 121.03 16.9497 121.03 18.1197V23.6997H118.03V17.8797C118.03 16.8797 117.56 16.2597 116.61 16.2597C115.66 16.2597 115.06 16.9497 115.06 18.1197V23.6997H112.06V13.7997H115.06V14.7097C115.371 14.3077 115.776 13.9893 116.241 13.7833C116.705 13.5773 117.214 13.4901 117.72 13.5297C118.227 13.5032 118.733 13.6092 119.187 13.8371C119.641 14.065 120.028 14.4071 120.31 14.8297C120.64 14.3881 121.076 14.0373 121.578 13.81C122.079 13.5826 122.631 13.4862 123.18 13.5297C125.52 13.5297 127 15.1497 127 17.6197Z" fill="#3563E9"/>
<path d="M129.52 13.7398C130.735 13.7398 131.72 12.7548 131.72 11.5398C131.72 10.3248 130.735 9.33984 129.52 9.33984C128.305 9.33984 127.32 10.3248 127.32 11.5398C127.32 12.7548 128.305 13.7398 129.52 13.7398Z"/>
</svg>
