<svg width="748" height="309" viewBox="0 0 748 309" fill="none" xmlns="http://www.w3.org/2000/svg">
<path d="M506.7 47.3699C491.204 41.7236 474.825 38.8902 458.333 39.0033C405 39.0033 367.333 65.8699 367.067 104.437C366.733 132.77 393.833 148.737 414.333 158.203C435.367 167.937 442.4 174.07 442.333 182.77C442.2 196.003 425.533 202.003 410.033 202.003C388.733 202.003 377.1 199.037 359.2 191.603L352.567 188.503L345 232.903C357.967 238.303 381.333 242.937 405.467 243.337C462.167 243.337 499.233 216.637 499.667 175.603C500.133 152.97 485.467 135.87 454.6 121.737C435.833 112.57 424.2 106.437 424.2 97.1366C424.2 88.9032 434.167 80.1032 455 80.1032C468.865 79.7678 482.645 82.3692 495.433 87.7366L500.433 89.9699L508 47.0699L506.7 47.3699ZM645.1 42.6032H603.433C590.467 42.6032 580.7 46.1699 575.033 59.0366L494.9 240.57H551.6L562.933 210.803L632.133 210.87C633.767 217.837 638.767 240.57 638.767 240.57H688.767L645.1 42.6032ZM290.367 40.9366H344.4L310.6 239.003H256.633L290.367 40.8699V40.9366ZM153.2 150.103L158.8 177.603L211.6 42.6032H268.833L183.8 240.303H126.7L80.0333 72.9032C79.2775 70.143 77.5025 67.7723 75.0667 66.2699C58.2467 57.5812 40.4248 50.9875 22 46.6366L22.7333 42.4699H109.7C121.5 42.9366 131 46.6366 134.167 59.2366L153.167 150.203L153.2 150.103ZM578.433 170.303L599.967 114.903C599.7 115.503 604.4 103.47 607.133 96.0366L610.833 113.137L623.333 170.27H578.4L578.433 170.303Z" fill="white"/>
</svg>
