<svg xmlns="http://www.w3.org/2000/svg" viewBox="0 0 1080 286.7">
    <style>
        .st0{fill:#00adee}.st1{fill:#fff}
    </style>
    <path d="M211.3 285.9H44.7A43.7 43.7 0 0 1 .9 242.2V44.4A42.76 42.76 0 0 1 41.3-.7c.5 0 1 0 1.4-.1H210a42.3 42.3 0 0 1 42.5 42.3c0 .8 0 1.5-.1 2.3v196.9a42 42 0 0 1-38.6 45.1c-.8 0-1.6.1-2.5.1" class="st0"/>
    <path d="M158.7 20.8H99.4L44 122.7h16.2L74.4 95h68.8l15.5 27.7h54.6zm46.6 116.7H44.7c-11.1.1-21.4-5.9-27-15.5v118.7a26.07 26.07 0 0 0 25 26.3h168.7c14-.6 25.1-12.2 25-26.3v-78.9c-.8-20.9-15.6-24.3-31.1-24.3" class="st1"/>
    <path d="m79.1 83.5 27.7-51.9 28.3 51.9zm105.2 169.3H44V151.7h135.6c15.4-.2 28.1 12.1 28.3 27.5v.1c-.1 7.1-3 13.9-8.1 18.8 8.9 5.2 14.3 14.7 14.2 25 .3 16.1-12.5 29.4-28.6 29.7z" class="st0"/>
    <path d="M131.1 204.9c9.3-.2 17 7 17.5 16.2.1 9.2-7.3 16.8-16.5 16.9H91.9v-33.1zm13.5-26.2c-.1 7.2-5.9 12.9-13.1 12.9H91.3v-25.7h39.8c7.2-.3 13.2 5.3 13.5 12.4z" class="st1"/>
    <path fill="#292e31" d="M333.3 42.9h53.8v16.6h-34.7v10.7h31V86h-31v12.2h35.7v16.7h-54.7zm107.2 21.5c7.9 7.6 11.7 14 11.7 24.6 0 14.2-10.6 26.9-28.8 26.9s-28.6-12.6-28.6-26.9c0-15.2 10.5-24.4 22.9-24.7.2 0 .7 0 .9.1l-16.2-14.6V37.7h43.5v14.5h-18.1zM434.1 89c0-4.9-3-11.4-10-11.4-8.2 0-11.1 5.8-11.1 11.4 0 6 3.8 11.4 10.7 11.4 7 0 10.4-5.5 10.4-11.4m100.8.6c0 15.5-8.7 26.3-22 26.3-6.9 0-12.6-2.5-16.1-9.4-3.4 6.9-9.1 9.4-16 9.4-13.3 0-21.9-10.8-21.9-26.3 0-15.8 8.5-27.7 26.7-28.7l2.3 14.9c-9.7.4-11.4 9.3-11.4 13.7 0 6.8 2.2 11.1 6.6 11.1 4.3 0 5.4-2.5 5.4-8V80.3h16.8v12.3c0 5.6 1.2 8 5.4 8 4.3 0 6.5-4.3 6.5-11.1 0-4.4-1.6-13.3-11.3-13.7l2.3-14.9c18.2 1.1 26.7 12.9 26.7 28.7m-32.4-53.4 15 6.5-13.8 12.8h-12.1zm43 77.8c-2.7-1.7-4.5-5-4.5-8.7 0-5.6 4.3-10.1 10-10.1s10.1 4.3 10.1 9.9c0 1.3 0 3.7-1.7 6.4l-11.6 17.9H541zm66.6-36.6h-14.2V62.1h46.3v15.3h-14v37.4h-18.1zm36.2 11c0-16 12-27.4 28.8-27.4 16.7 0 28.6 11.4 28.6 27.4 0 16.1-12 27.6-28.8 27.6-16.7 0-28.6-11.5-28.6-27.6m39.2 0c0-6.5-4-12-10.6-12-6.7 0-10.5 5.2-10.5 12 0 6.6 4.1 11.9 10.7 11.9s10.4-5 10.4-11.9m90.5-5.3 19.2 31.8h-19.7l-11.2-18.5-4 4.6v13.9h-18V62.2h18v16.4l14.1-16.4h20.4zm19.3 5.3c0-18.6 11.4-27.4 23.7-27.4 6.8 0 11.5 2.5 14.7 6.3h.2v-6h17.7v53.6h-17.7v-5.2h-.2c-3.1 3.9-7.6 6.4-14.4 6.4-12.5-.1-24-9.1-24-27.7m39.3 0c0-7.6-4.9-11.9-10.6-11.9s-10.9 4.5-10.9 11.9c0 7.7 4.7 11.9 10.9 11.9 5.7 0 10.6-4.5 10.6-11.9m44.7-30.6c-1.6-5-4.5-5.7-6.9-5.7s-4.4.3-6.7.7l-2-15c2.8-.6 7.5-1.2 11.2-1.2 10 0 15.3 4 19.7 16.2l22.2 62h-18.6l-9.6-29.5h-.3l-10.8 29.5H860l22.8-52.5zm38.8 30.6c0-16 12-27.4 28.8-27.4 16.7 0 28.6 11.4 28.6 27.4 0 16.1-12 27.6-28.8 27.6-16.7 0-28.6-11.5-28.6-27.6m39.2 0c0-6.5-4-12-10.6-12-6.7 0-10.5 5.2-10.5 12 0 6.6 4.1 11.9 10.7 11.9s10.4-5 10.4-11.9m-4.7-52.2 15 6.5-13.8 12.8h-12.1zM340.8 216c-4.8-1.4-8.7-6-8.7-11.5 0-11.2 12.3-15 22.9-15 11.9 0 18.5 3.3 24.2 8.8l-10.1 9.8c-4.8-4.3-8.7-5.1-13.3-5.1-2.8 0-6.3.8-6.3 4.2 0 3.5 3.1 3.9 5.1 3.9h9.6v10.5h-10.3c-3.7 0-6.2 1.5-6.2 4.6s2.7 4.8 8.1 4.8c6 0 11.3-2.7 14.9-6.2l9.8 10c-6 5.4-14 9.7-26 9.7-16.7 0-24.6-5.7-24.6-15.6 0-6.2 4.1-11 10.8-12.6v-.3zm47.4-25.4h18.1v52.7h-18.1zm14.3-25.9 15 6.5-13.8 12.8h-12.1zm10.5 25.9h19.2l10.8 31h.2l10.9-31h18.8l-21.1 53H434zm61.3 26.3c0-18.6 11.4-27.4 23.7-27.4 6.8 0 11.5 2.5 14.7 6.3h.2v-6h17.7v53.6h-17.7v-5.2h-.2c-3.1 3.9-7.6 6.4-14.4 6.4-12.5-.1-24-9.1-24-27.7m39.3 0c0-7.6-4.9-11.9-10.6-11.9s-10.9 4.5-10.9 11.9c0 7.7 4.7 11.9 10.9 11.9 5.7 0 10.6-4.5 10.6-11.9m28.3-26.3H560v52.7h-18.1zm93.6 53.8v18.5h-18.1V244l-20.9-53.4h19.1l10.9 32.5h.2l11-32.5h18.7zm27.6-53.8h18.1v52.7h-18.1zm27.2 26.3c0-18.6 11.4-27.4 23.7-27.4 6.8 0 11.5 2.5 14.7 6.3h.2v-6h17.7v53.6h-17.7v-5.2h-.2c-3.1 3.9-7.6 6.4-14.4 6.4-12.4-.1-24-9.1-24-27.7m39.4 0c0-7.6-4.9-11.9-10.6-11.9s-10.9 4.5-10.9 11.9c0 7.7 4.7 11.9 10.9 11.9 5.7 0 10.6-4.5 10.6-11.9m55.6 0c0-16 12-27.4 28.8-27.4 16.7 0 28.6 11.4 28.6 27.4 0 16.1-12 27.5-28.8 27.5-16.6.1-28.6-11.4-28.6-27.5m39.2 0c0-6.5-4-12-10.6-12-6.7 0-10.5 5.2-10.5 12 0 6.6 4.1 11.9 10.7 11.9s10.4-5 10.4-11.9m-4.7-52.2 15 6.5L821 184h-12.1zm45.4 21.6c-1.6-5-4.5-5.7-6.9-5.7s-4.4.3-6.7.7l-2-15c2.8-.6 7.5-1.2 11.2-1.2 10 0 15.3 4 19.7 16.2l22.2 62h-18.6l-9.6-29.5h-.3l-10.8 29.5h-19.5l22.8-52.5zm38.9 30.6c0-16 12-27.4 28.8-27.4 16.7 0 28.6 11.4 28.6 27.4 0 16.1-12 27.5-28.8 27.5-16.7.1-28.6-11.4-28.6-27.5m39.1 0c0-6.5-4-12-10.6-12-6.7 0-10.5 5.2-10.5 12 0 6.6 4.1 11.9 10.7 11.9s10.4-5 10.4-11.9m76.9 3.2c0 13.5-7.1 24.4-25.4 24.4-18.1 0-25.2-10.6-25.2-24.4v-29.5h18.1v28.3c0 6.5 2.2 10.1 7.1 10.1 5.1 0 7.3-3.6 7.3-10.1v-28.3h18.1zm46.5-10c-3.2-4.2-6.1-5.4-10.4-5.4-6.2 0-10.1 5.7-10.1 11.8 0 6 1.4 10.4 10.5 13.5 12.4 4.3 17.9 7.1 17.9 16.7 0 3.7-1.1 9.3-2.8 14.7h-14c.8-3.5 1.9-7.3 1.9-9.7 0-4.5-6.2-6.2-11.7-7.8-14.5-4.2-19.6-14.5-19.6-26.7 0-15.5 10.6-27.7 28-27.7 10.7 0 18.1 3.8 23.2 11.4z"/>
</svg>
