<svg width="32" height="20" viewBox="0 0 32 20" fill="none" xmlns="http://www.w3.org/2000/svg">
<path d="M20.3617 2.52505H12.0422V17.4749H20.3617V2.52505Z" fill="#FF5F00"/>
<path d="M12.5705 10C12.5692 8.56022 12.8954 7.13901 13.5246 5.84396C14.1538 4.54891 15.0693 3.41397 16.202 2.52506C14.7994 1.4226 13.1148 0.736995 11.341 0.546611C9.56713 0.356227 7.77549 0.668736 6.17085 1.44843C4.56621 2.22813 3.21332 3.44356 2.26681 4.95578C1.32029 6.468 0.818359 8.216 0.818359 10C0.818359 11.784 1.32029 13.532 2.26681 15.0442C3.21332 16.5564 4.56621 17.7719 6.17085 18.5516C7.77549 19.3313 9.56713 19.6438 11.341 19.4534C13.1148 19.263 14.7994 18.5774 16.202 17.4749C15.0693 16.586 14.1538 15.4511 13.5246 14.156C12.8955 12.861 12.5692 11.4398 12.5705 10Z" fill="#EB001B"/>
<path d="M31.5851 10C31.5852 11.784 31.0833 13.532 30.1368 15.0442C29.1904 16.5564 27.8375 17.7718 26.2329 18.5515C24.6283 19.3313 22.8367 19.6438 21.0629 19.4534C19.289 19.263 17.6046 18.5774 16.202 17.4749C17.3336 16.5851 18.2485 15.45 18.8775 14.1552C19.5066 12.8603 19.8334 11.4396 19.8334 10C19.8334 8.56045 19.5066 7.13968 18.8775 5.84483C18.2485 4.54999 17.3336 3.41487 16.202 2.52506C17.6046 1.4226 19.289 0.73699 21.0629 0.546608C22.8367 0.356226 24.6283 0.66875 26.2329 1.44846C27.8375 2.22816 29.1904 3.44359 30.1368 4.95581C31.0833 6.46803 31.5852 8.21603 31.5851 10Z" fill="#F79E1B"/>
<path d="M30.678 15.8915V15.5855H30.8014V15.5231H30.4871V15.5855H30.6106V15.8915H30.678ZM31.2882 15.8915V15.5225H31.1919L31.0811 15.7763L30.9702 15.5225H30.8738V15.8915H30.9419V15.6132L31.0458 15.8532H31.1163L31.2203 15.6126V15.8915H31.2882Z" fill="#F79E1B"/>
</svg>
