<?xml version="1.0" encoding="UTF-8" standalone="no"?>
<!DOCTYPE svg PUBLIC "-//W3C//DTD SVG 1.1//EN" "http://www.w3.org/Graphics/SVG/1.1/DTD/svg11.dtd">
<svg width="100%" height="100%" viewBox="0 0 957 315" version="1.1" xmlns="http://www.w3.org/2000/svg" xmlns:xlink="http://www.w3.org/1999/xlink" xml:space="preserve" xmlns:serif="http://www.serif.com/" style="fill-rule:evenodd;clip-rule:evenodd;stroke-linejoin:round;stroke-miterlimit:2;">
    <g transform="matrix(1,0,0,1,-2663,-1084)">
        <g transform="matrix(1,0,0,1,1464.71,0.612408)">
            <g transform="matrix(125,0,0,125,2001.05,1295.43)">
            </g>
            <text x="1275.17px" y="1295.43px" style="font-family:'BodoniSvtyTwoSCITCTT-Book', 'Bodoni 72 Smallcaps';font-size:125px;fill:rgb(0,99,255);">Joyfully clean</text>
        </g>
        <g transform="matrix(0.239117,0,0,0.23858,3303.83,949.023)">
            <path d="M842.159,817.469L842.159,970.398C842.159,986.304 848.411,1001.25 858.976,1010.6C869.541,1019.95 883.143,1022.57 895.563,1017.65L1014.98,970.398L895.563,1017.65C883.143,1022.57 873.405,1034.43 869.37,1049.56C865.334,1064.68 867.489,1081.25 875.165,1094.12L948.966,1217.84L875.165,1094.12C867.489,1081.25 855.219,1073.64 842.159,1073.64C829.1,1073.64 816.83,1081.25 809.154,1094.12L735.352,1217.84L809.154,1094.12C816.83,1081.25 818.984,1064.68 814.949,1049.56C810.913,1034.43 801.176,1022.57 788.756,1017.65L669.342,970.398L788.756,1017.65C801.176,1022.57 814.777,1019.95 825.342,1010.6C835.907,1001.25 842.159,986.304 842.159,970.398L842.159,817.469Z" style="fill:rgb(0,115,255);"/>
        </g>
        <g transform="matrix(0.348854,0,0,0.323191,3197.07,897.213)">
            <path d="M842.159,817.469L842.159,970.398C842.159,986.304 848.411,1001.25 858.976,1010.6C869.541,1019.95 883.143,1022.57 895.563,1017.65L1014.98,970.398L895.563,1017.65C883.143,1022.57 873.405,1034.43 869.37,1049.56C865.334,1064.68 867.489,1081.25 875.165,1094.12L948.966,1217.84L875.165,1094.12C867.489,1081.25 855.219,1073.64 842.159,1073.64C829.1,1073.64 816.83,1081.25 809.154,1094.12L735.352,1217.84L809.154,1094.12C816.83,1081.25 818.984,1064.68 814.949,1049.56C810.913,1034.43 801.176,1022.57 788.756,1017.65L669.342,970.398L788.756,1017.65C801.176,1022.57 814.777,1019.95 825.342,1010.6C835.907,1001.25 842.159,986.304 842.159,970.398L842.159,817.469Z" style="fill:rgb(0,115,255);"/>
        </g>
        <g transform="matrix(0.346973,0,0,0.32786,3180.01,853.913)">
            <path d="M842.159,817.469L842.159,970.398C842.159,986.304 848.411,1001.25 858.976,1010.6C869.541,1019.95 883.143,1022.57 895.563,1017.65L1014.98,970.398L895.563,1017.65C883.143,1022.57 873.405,1034.43 869.37,1049.56C865.334,1064.68 867.489,1081.25 875.165,1094.12L948.966,1217.84L875.165,1094.12C867.489,1081.25 855.219,1073.64 842.159,1073.64C829.1,1073.64 816.83,1081.25 809.154,1094.12L735.352,1217.84L809.154,1094.12C816.83,1081.25 818.984,1064.68 814.949,1049.56C810.913,1034.43 801.176,1022.57 788.756,1017.65L669.342,970.398L788.756,1017.65C801.176,1022.57 814.777,1019.95 825.342,1010.6C835.907,1001.25 842.159,986.304 842.159,970.398L842.159,817.469Z" style="fill:rgb(0,115,255);"/>
        </g>
        <g transform="matrix(0.239117,0,0,0.23858,3289.48,918.619)">
            <path d="M842.159,817.469L842.159,970.398C842.159,986.304 848.411,1001.25 858.976,1010.6C869.541,1019.95 883.143,1022.57 895.563,1017.65L1014.98,970.398L895.563,1017.65C883.143,1022.57 873.405,1034.43 869.37,1049.56C865.334,1064.68 867.489,1081.25 875.165,1094.12L948.966,1217.84L875.165,1094.12C867.489,1081.25 855.219,1073.64 842.159,1073.64C829.1,1073.64 816.83,1081.25 809.154,1094.12L735.352,1217.84L809.154,1094.12C816.83,1081.25 818.984,1064.68 814.949,1049.56C810.913,1034.43 801.176,1022.57 788.756,1017.65L669.342,970.398L788.756,1017.65C801.176,1022.57 814.777,1019.95 825.342,1010.6C835.907,1001.25 842.159,986.304 842.159,970.398L842.159,817.469Z" style="fill:rgb(0,115,255);"/>
        </g>
        <g transform="matrix(0.239117,0,0,0.23858,3330.81,935.557)">
            <path d="M842.159,817.469L842.159,970.398C842.159,986.304 848.411,1001.25 858.976,1010.6C869.541,1019.95 883.143,1022.57 895.563,1017.65L1014.98,970.398L895.563,1017.65C883.143,1022.57 873.405,1034.43 869.37,1049.56C865.334,1064.68 867.489,1081.25 875.165,1094.12L948.966,1217.84L875.165,1094.12C867.489,1081.25 855.219,1073.64 842.159,1073.64C829.1,1073.64 816.83,1081.25 809.154,1094.12L735.352,1217.84L809.154,1094.12C816.83,1081.25 818.984,1064.68 814.949,1049.56C810.913,1034.43 801.176,1022.57 788.756,1017.65L669.342,970.398L788.756,1017.65C801.176,1022.57 814.777,1019.95 825.342,1010.6C835.907,1001.25 842.159,986.304 842.159,970.398L842.159,817.469Z" style="fill:rgb(0,115,255);"/>
        </g>
        <g transform="matrix(0.239117,0,0,0.23858,3322.3,975.467)">
            <path d="M842.159,817.469L842.159,970.398C842.159,986.304 848.411,1001.25 858.976,1010.6C869.541,1019.95 883.143,1022.57 895.563,1017.65L1014.98,970.398L895.563,1017.65C883.143,1022.57 873.405,1034.43 869.37,1049.56C865.334,1064.68 867.489,1081.25 875.165,1094.12L948.966,1217.84L875.165,1094.12C867.489,1081.25 855.219,1073.64 842.159,1073.64C829.1,1073.64 816.83,1081.25 809.154,1094.12L735.352,1217.84L809.154,1094.12C816.83,1081.25 818.984,1064.68 814.949,1049.56C810.913,1034.43 801.176,1022.57 788.756,1017.65L669.342,970.398L788.756,1017.65C801.176,1022.57 814.777,1019.95 825.342,1010.6C835.907,1001.25 842.159,986.304 842.159,970.398L842.159,817.469Z" style="fill:rgb(0,115,255);"/>
        </g>
    </g>
</svg>
