<?xml version="1.0" encoding="UTF-8" standalone="no"?>
<!DOCTYPE svg PUBLIC "-//W3C//DTD SVG 1.1//EN" "http://www.w3.org/Graphics/SVG/1.1/DTD/svg11.dtd">
<svg width="100%" height="100%" viewBox="0 0 4961 3508" version="1.1" xmlns="http://www.w3.org/2000/svg" xmlns:xlink="http://www.w3.org/1999/xlink" xml:space="preserve" xmlns:serif="http://www.serif.com/" style="fill-rule:evenodd;clip-rule:evenodd;stroke-linejoin:round;stroke-miterlimit:2;">
    <g transform="matrix(1,0,0,1,1464.71,0.612408)">
        <g transform="matrix(125,0,0,125,2001.05,1295.43)">
        </g>
        <text x="1275.17px" y="1295.43px" style="font-family:'BodoniSvtyTwoSCITCTT-Book', 'Bodoni 72 Smallcaps';font-size:125px;fill:rgb(0,99,255);">Joyfully clean</text>
    </g>
    <path d="M984.001,1311.05L984.001,1354.78L1021.92,1341.27L984.001,1354.78L1007.44,1390.16L984.001,1354.78L960.566,1390.16L984.001,1354.78L946.083,1341.27L984.001,1354.78L984.001,1311.05Z" style="fill:rgb(235,235,235);"/>
    <path d="M1065.54,975.375L1065.54,1143.21L1181.01,1091.35L1065.54,1143.21L1136.9,1278.99L1065.54,1143.21L994.177,1278.99L1065.54,1143.21L950.073,1091.35L1065.54,1143.21L1065.54,975.375Z" style="fill:rgb(235,235,235);"/>
    <g transform="matrix(0.239117,0,0,0.23858,3303.83,949.023)">
        <path d="M842.159,817.469L842.159,970.398C842.159,986.304 848.411,1001.25 858.976,1010.6C869.541,1019.95 883.143,1022.57 895.563,1017.65L1014.98,970.398L895.563,1017.65C883.143,1022.57 873.405,1034.43 869.37,1049.56C865.334,1064.68 867.489,1081.25 875.165,1094.12L948.966,1217.84L875.165,1094.12C867.489,1081.25 855.219,1073.64 842.159,1073.64C829.1,1073.64 816.83,1081.25 809.154,1094.12L735.352,1217.84L809.154,1094.12C816.83,1081.25 818.984,1064.68 814.949,1049.56C810.913,1034.43 801.176,1022.57 788.756,1017.65L669.342,970.398L788.756,1017.65C801.176,1022.57 814.777,1019.95 825.342,1010.6C835.907,1001.25 842.159,986.304 842.159,970.398L842.159,817.469Z" style="fill:rgb(0,115,255);"/>
    </g>
    <g transform="matrix(0.348854,0,0,0.323191,3197.07,897.213)">
        <path d="M842.159,817.469L842.159,970.398C842.159,986.304 848.411,1001.25 858.976,1010.6C869.541,1019.95 883.143,1022.57 895.563,1017.65L1014.98,970.398L895.563,1017.65C883.143,1022.57 873.405,1034.43 869.37,1049.56C865.334,1064.68 867.489,1081.25 875.165,1094.12L948.966,1217.84L875.165,1094.12C867.489,1081.25 855.219,1073.64 842.159,1073.64C829.1,1073.64 816.83,1081.25 809.154,1094.12L735.352,1217.84L809.154,1094.12C816.83,1081.25 818.984,1064.68 814.949,1049.56C810.913,1034.43 801.176,1022.57 788.756,1017.65L669.342,970.398L788.756,1017.65C801.176,1022.57 814.777,1019.95 825.342,1010.6C835.907,1001.25 842.159,986.304 842.159,970.398L842.159,817.469Z" style="fill:rgb(0,115,255);"/>
    </g>
    <g transform="matrix(0.346973,0,0,0.32786,3180.01,853.913)">
        <path d="M842.159,817.469L842.159,970.398C842.159,986.304 848.411,1001.25 858.976,1010.6C869.541,1019.95 883.143,1022.57 895.563,1017.65L1014.98,970.398L895.563,1017.65C883.143,1022.57 873.405,1034.43 869.37,1049.56C865.334,1064.68 867.489,1081.25 875.165,1094.12L948.966,1217.84L875.165,1094.12C867.489,1081.25 855.219,1073.64 842.159,1073.64C829.1,1073.64 816.83,1081.25 809.154,1094.12L735.352,1217.84L809.154,1094.12C816.83,1081.25 818.984,1064.68 814.949,1049.56C810.913,1034.43 801.176,1022.57 788.756,1017.65L669.342,970.398L788.756,1017.65C801.176,1022.57 814.777,1019.95 825.342,1010.6C835.907,1001.25 842.159,986.304 842.159,970.398L842.159,817.469Z" style="fill:rgb(0,115,255);"/>
    </g>
    <g transform="matrix(0.239117,0,0,0.23858,3289.48,918.619)">
        <path d="M842.159,817.469L842.159,970.398C842.159,986.304 848.411,1001.25 858.976,1010.6C869.541,1019.95 883.143,1022.57 895.563,1017.65L1014.98,970.398L895.563,1017.65C883.143,1022.57 873.405,1034.43 869.37,1049.56C865.334,1064.68 867.489,1081.25 875.165,1094.12L948.966,1217.84L875.165,1094.12C867.489,1081.25 855.219,1073.64 842.159,1073.64C829.1,1073.64 816.83,1081.25 809.154,1094.12L735.352,1217.84L809.154,1094.12C816.83,1081.25 818.984,1064.68 814.949,1049.56C810.913,1034.43 801.176,1022.57 788.756,1017.65L669.342,970.398L788.756,1017.65C801.176,1022.57 814.777,1019.95 825.342,1010.6C835.907,1001.25 842.159,986.304 842.159,970.398L842.159,817.469Z" style="fill:rgb(0,115,255);"/>
    </g>
    <g transform="matrix(0.239117,0,0,0.23858,3330.81,935.557)">
        <path d="M842.159,817.469L842.159,970.398C842.159,986.304 848.411,1001.25 858.976,1010.6C869.541,1019.95 883.143,1022.57 895.563,1017.65L1014.98,970.398L895.563,1017.65C883.143,1022.57 873.405,1034.43 869.37,1049.56C865.334,1064.68 867.489,1081.25 875.165,1094.12L948.966,1217.84L875.165,1094.12C867.489,1081.25 855.219,1073.64 842.159,1073.64C829.1,1073.64 816.83,1081.25 809.154,1094.12L735.352,1217.84L809.154,1094.12C816.83,1081.25 818.984,1064.68 814.949,1049.56C810.913,1034.43 801.176,1022.57 788.756,1017.65L669.342,970.398L788.756,1017.65C801.176,1022.57 814.777,1019.95 825.342,1010.6C835.907,1001.25 842.159,986.304 842.159,970.398L842.159,817.469Z" style="fill:rgb(0,115,255);"/>
    </g>
    <g transform="matrix(0.239117,0,0,0.23858,3322.3,975.467)">
        <path d="M842.159,817.469L842.159,970.398C842.159,986.304 848.411,1001.25 858.976,1010.6C869.541,1019.95 883.143,1022.57 895.563,1017.65L1014.98,970.398L895.563,1017.65C883.143,1022.57 873.405,1034.43 869.37,1049.56C865.334,1064.68 867.489,1081.25 875.165,1094.12L948.966,1217.84L875.165,1094.12C867.489,1081.25 855.219,1073.64 842.159,1073.64C829.1,1073.64 816.83,1081.25 809.154,1094.12L735.352,1217.84L809.154,1094.12C816.83,1081.25 818.984,1064.68 814.949,1049.56C810.913,1034.43 801.176,1022.57 788.756,1017.65L669.342,970.398L788.756,1017.65C801.176,1022.57 814.777,1019.95 825.342,1010.6C835.907,1001.25 842.159,986.304 842.159,970.398L842.159,817.469Z" style="fill:rgb(0,115,255);"/>
    </g>
    <path d="M1877.44,1792.8L1831.55,1866.42L1905.8,1894.55L1831.55,1866.42L1831.55,1957.43L1831.55,1866.42L1757.3,1894.55L1831.55,1866.42L1785.66,1792.8L1831.55,1866.42L1877.44,1792.8Z" style="fill:rgb(235,235,235);"/>
    <g transform="matrix(0.297594,0,0,0.162964,1212.04,1638.44)">
        <path d="M1836.23,1744.25L1837.66,1746.01L1802.48,1828.33L1859.41,1859.77L1858.86,1862.62L1801.93,1831.18L1801.93,1932.92L1800.16,1932.92L1800.16,1831.18L1743.23,1862.62L1742.69,1859.77L1799.62,1828.33L1764.43,1746.01L1765.86,1744.25L1801.05,1826.56L1836.23,1744.25Z" style="fill:rgb(0,115,255);"/>
    </g>
    <path d="M2028.67,2136.55L2028.67,2011.04L2028.67,2136.55C2062.58,2076.56 2090.11,2027.85 2090.11,2027.85C2090.11,2027.85 2062.58,2076.56 2028.67,2136.55C2087.4,2101.91 2135.08,2073.79 2135.08,2073.79C2135.08,2073.79 2087.4,2101.91 2028.67,2136.55L2151.54,2136.55L2028.67,2136.55C2087.4,2171.18 2135.08,2199.31 2135.08,2199.31C2135.08,2199.31 2087.4,2171.18 2028.67,2136.55C2062.58,2196.54 2090.11,2245.25 2090.11,2245.25C2090.11,2245.25 2062.58,2196.54 2028.67,2136.55L2028.67,2262.06L2028.67,2136.55C1994.77,2196.54 1967.24,2245.25 1967.24,2245.25C1967.24,2245.25 1994.77,2196.54 2028.67,2136.55C1969.94,2171.18 1922.27,2199.31 1922.27,2199.31C1922.27,2199.31 1969.94,2171.18 2028.67,2136.55L1905.8,2136.55L2028.67,2136.55C1969.94,2101.91 1922.27,2073.79 1922.27,2073.79C1922.27,2073.79 1969.94,2101.91 2028.67,2136.55C1994.77,2076.56 1967.24,2027.85 1967.24,2027.85C1967.24,2027.85 1994.77,2076.56 2028.67,2136.55Z" style="fill:rgb(235,235,235);"/>
</svg>
